<?xml version="1.0" encoding="UTF-8" standalone="no"?>
<!-- Created with Inkscape (http://www.inkscape.org/) -->

<svg
   width="119.19556mm"
   height="119.19556mm"
   viewBox="0 0 119.19556 119.19556"
   version="1.1"
   id="svg5"
   xml:space="preserve"
   xmlns="http://www.w3.org/2000/svg"
   xmlns:svg="http://www.w3.org/2000/svg"><defs
     id="defs2" /><g
     id="layer1"
     transform="translate(-245.57508,-347.47741)"><g
       id="g675"><rect
         style="fill:#ffffff;stroke:none;stroke-width:0.80443"
         id="rect530"
         width="119.19556"
         height="119.19557"
         x="245.57507"
         y="347.47739"
         ry="5.5131073" /><g
         id="g570"
         transform="translate(149.31025,354.29357)"><g
           id="g566"
           transform="translate(55.209127,-162.26706)"><path
             style="fill:#353a48;fill-opacity:1;stroke:#2d2f3a;stroke-width:4.99999;stroke-dasharray:none;stroke-opacity:1"
             d="m 58.632186,189.3735 0.0571,39.25473 c 0.0126,6.92742 1.96244,12.44967 7.53171,15.56035 l 25.928221,13.53228 c 6.101584,3.31004 11.600663,2.97104 16.997363,0.0204 l 23.40703,-11.84343 c 6.8467,-3.19608 9.98883,-8.56046 10.11515,-14.9148 l 0.006,-41.68077"
             id="path536" /><g
             id="g564"
             transform="translate(-0.62984952,1.2167309)"
             style="fill:#585c71;fill-opacity:1"><rect
               style="fill:#585c71;fill-opacity:1;stroke:none;stroke-width:9.63344;stroke-dasharray:none;stroke-opacity:1"
               id="rect538"
               width="4"
               height="8"
               x="64.264854"
               y="197.12006"
               ry="2" /><rect
               style="fill:#585c71;fill-opacity:1;stroke:none;stroke-width:9.63344;stroke-dasharray:none;stroke-opacity:1"
               id="rect540"
               width="4"
               height="8"
               x="64.264854"
               y="208.55972"
               ry="2" /><rect
               style="fill:#585c71;fill-opacity:1;stroke:none;stroke-width:9.63344;stroke-dasharray:none;stroke-opacity:1"
               id="rect542"
               width="4"
               height="8"
               x="64.264854"
               y="219.78531"
               ry="2" /><rect
               style="fill:#585c71;fill-opacity:1;stroke:none;stroke-width:9.63344;stroke-dasharray:none;stroke-opacity:1"
               id="rect544"
               width="4"
               height="8"
               x="134.30179"
               y="197.12006"
               ry="2" /><rect
               style="fill:#585c71;fill-opacity:1;stroke:none;stroke-width:9.63344;stroke-dasharray:none;stroke-opacity:1"
               id="rect546"
               width="4"
               height="8"
               x="134.30179"
               y="208.55972"
               ry="2" /><rect
               style="fill:#585c71;fill-opacity:1;stroke:none;stroke-width:9.63344;stroke-dasharray:none;stroke-opacity:1"
               id="rect548"
               width="4"
               height="8"
               x="134.30179"
               y="219.78531"
               ry="2" /><rect
               style="fill:#585c71;fill-opacity:1;stroke:none;stroke-width:9.63344;stroke-dasharray:none;stroke-opacity:1"
               id="rect550"
               width="4"
               height="8"
               x="258.65186"
               y="67.040909"
               ry="2"
               transform="rotate(45)" /><rect
               style="fill:#585c71;fill-opacity:1;stroke:none;stroke-width:9.63344;stroke-dasharray:none;stroke-opacity:1"
               id="rect552"
               width="4"
               height="8"
               x="115.15067"
               y="210.53087"
               ry="2"
               transform="matrix(-0.70710678,0.70710678,0.70710678,0.70710678,0,0)" /><rect
               style="fill:#585c71;fill-opacity:1;stroke:none;stroke-width:9.63344;stroke-dasharray:none;stroke-opacity:1"
               id="rect554"
               width="4"
               height="8"
               x="167.25549"
               y="183.69768"
               ry="2"
               transform="matrix(-0.5,0.8660254,0.8660254,0.5,0,0)" /><rect
               style="fill:#585c71;fill-opacity:1;stroke:none;stroke-width:9.63344;stroke-dasharray:none;stroke-opacity:1"
               id="rect556"
               width="4"
               height="8"
               x="268.56369"
               y="8.2266855"
               ry="2"
               transform="rotate(60)" /><rect
               style="fill:#585c71;fill-opacity:1;stroke:none;stroke-width:9.63344;stroke-dasharray:none;stroke-opacity:1"
               id="rect558"
               width="4"
               height="8"
               x="268.41559"
               y="3.8667254"
               ry="2"
               transform="rotate(63.41592)" /><rect
               style="fill:#585c71;fill-opacity:1;stroke:none;stroke-width:9.63344;stroke-dasharray:none;stroke-opacity:1"
               id="rect560"
               width="4"
               height="8"
               x="177.80487"
               y="184.93776"
               ry="2"
               transform="matrix(-0.44751062,0.89427862,0.89427862,0.44751062,0,0)" /><path
               style="fill:#585c71;fill-opacity:1;stroke:none;stroke-width:0.2;stroke-dasharray:none;stroke-opacity:1"
               d="m 96.077719,248.24434 c 0.745702,-0.44006 1.30059,-0.24145 1.833967,0.0254 2.903984,1.5332 4.052754,1.27697 6.894074,-0.06 0.57368,-0.25378 1.09127,-0.33237 1.61535,0.0167 0.28608,0.19946 0.45805,0.37976 0.60065,0.59838 0.25768,0.36698 0.33156,1.26595 -0.20161,1.65174 -3.75193,2.37687 -7.346638,2.36205 -11.000749,0.0812 -0.547247,-0.33546 -0.340986,-0.96177 -0.268896,-1.49495 0.05918,-0.35981 0.276956,-0.66366 0.527214,-0.81842 z"
               id="path562" /></g></g><path
           style="fill:#353a48;fill-opacity:1;stroke:#2d2f3a;stroke-width:5;stroke-dasharray:none;stroke-opacity:1"
           d="m 110.93596,14.54607 c -0.0225,-4.91586 1.96986,-6.89945 6.35858,-6.72129 l 76.51882,-0.008 c 3.54212,0.0559 6.96981,1.75616 7.05674,6.86461 v 4.49109 c -0.0349,3.77023 -1.84305,6.82763 -6.20625,8.87247 l -30.39841,12.18181 c -6.14498,2.98983 -11.10631,2.90684 -17.4146,0.004 L 117.04096,28.06087 c -3.74189,-1.51949 -6.22897,-4.44052 -6.18531,-8.02931 z"
           id="path568" /></g></g></g></svg>
